<mxfile host="65bd71144e">
    <diagram id="2hImxgzDXVrk6QgNXSll" name="Page-1">
        <mxGraphModel dx="2398" dy="1207" grid="0" gridSize="10" guides="1" tooltips="1" connect="1" arrows="1" fold="1" page="1" pageScale="1" pageWidth="1500" pageHeight="1500" background="#ffffff" math="0" shadow="0">
            <root>
                <mxCell id="0"/>
                <mxCell id="1" parent="0"/>
                <mxCell id="5" value="Person" style="swimlane;fontStyle=1;align=center;verticalAlign=top;childLayout=stackLayout;horizontal=1;startSize=26;horizontalStack=0;resizeParent=1;resizeParentMax=0;resizeLast=0;collapsible=1;marginBottom=0;strokeColor=#000000;fontColor=#000000;labelBackgroundColor=default;" parent="1" vertex="1">
                    <mxGeometry x="610" y="148" width="310" height="170" as="geometry"/>
                </mxCell>
                <mxCell id="6" value="- name: string" style="text;align=left;verticalAlign=top;spacingLeft=4;spacingRight=4;overflow=hidden;rotatable=0;points=[[0,0.5],[1,0.5]];portConstraint=eastwest;strokeColor=#000000;fontColor=#000000;labelBackgroundColor=none;" parent="5" vertex="1">
                    <mxGeometry y="26" width="310" height="26" as="geometry"/>
                </mxCell>
                <mxCell id="7" value="" style="line;strokeWidth=1;align=left;verticalAlign=middle;spacingTop=-1;spacingLeft=3;spacingRight=3;rotatable=0;labelPosition=right;points=[];portConstraint=eastwest;strokeColor=#000000;fontColor=#000000;labelBackgroundColor=none;" parent="5" vertex="1">
                    <mxGeometry y="52" width="310" height="8" as="geometry"/>
                </mxCell>
                <mxCell id="8" value="+ Person(name: string)                                &#10; + introduce(): void                                   &#10; + sendMessage(user: User, message: string): void      &#10; + blockUser(user: User): void                         &#10; + setProfilePicture(media: Media): void               &#10; + viewProfile(user: User): void " style="text;align=left;verticalAlign=top;spacingLeft=4;spacingRight=4;overflow=hidden;rotatable=0;points=[[0,0.5],[1,0.5]];portConstraint=eastwest;strokeColor=#000000;fontColor=#000000;labelBackgroundColor=none;" parent="5" vertex="1">
                    <mxGeometry y="60" width="310" height="110" as="geometry"/>
                </mxCell>
                <mxCell id="9" value="&lt;font size=&quot;1&quot; style=&quot;&quot;&gt;&lt;b style=&quot;font-size: 28px;&quot;&gt;FutureForge Labs UML Diagram&lt;/b&gt;&lt;/font&gt;" style="text;html=1;align=center;verticalAlign=middle;resizable=0;points=[];autosize=1;strokeColor=#000000;fontColor=#000000;labelBackgroundColor=none;" parent="1" vertex="1">
                    <mxGeometry x="530" y="50" width="450" height="50" as="geometry"/>
                </mxCell>
                <mxCell id="10" value="Connection" style="swimlane;fontStyle=1;align=center;verticalAlign=top;childLayout=stackLayout;horizontal=1;startSize=26;horizontalStack=0;resizeParent=1;resizeParentMax=0;resizeLast=0;collapsible=1;marginBottom=0;strokeColor=#000000;fontColor=#FFFFFF;labelBackgroundColor=#000000;" parent="1" vertex="1">
                    <mxGeometry x="1085" y="260" width="270" height="160" as="geometry"/>
                </mxCell>
                <mxCell id="11" value="- connectedUsers: User[]" style="text;align=left;verticalAlign=top;spacingLeft=4;spacingRight=4;overflow=hidden;rotatable=0;points=[[0,0.5],[1,0.5]];portConstraint=eastwest;strokeColor=#000000;fontColor=#000000;labelBackgroundColor=none;" parent="10" vertex="1">
                    <mxGeometry y="26" width="270" height="24" as="geometry"/>
                </mxCell>
                <mxCell id="12" value="" style="line;strokeWidth=1;align=left;verticalAlign=middle;spacingTop=-1;spacingLeft=3;spacingRight=3;rotatable=0;labelPosition=right;points=[];portConstraint=eastwest;strokeColor=#000000;fontColor=#000000;labelBackgroundColor=none;" parent="10" vertex="1">
                    <mxGeometry y="50" width="270" height="20" as="geometry"/>
                </mxCell>
                <mxCell id="13" value="+ addConnection(user: User): void                      &#10; + removeConnection(user: User): void                   &#10; + getMutualConnections(user: User): User[]             &#10; + suggestConnections(user: User): User[]               &#10; + isConnected(user: User): boolean" style="text;align=left;verticalAlign=top;spacingLeft=4;spacingRight=4;overflow=hidden;rotatable=0;points=[[0,0.5],[1,0.5]];portConstraint=eastwest;strokeColor=#000000;fontColor=#000000;labelBackgroundColor=none;" parent="10" vertex="1">
                    <mxGeometry y="70" width="270" height="90" as="geometry"/>
                </mxCell>
                <mxCell id="14" value="Media" style="swimlane;fontStyle=1;align=center;verticalAlign=top;childLayout=stackLayout;horizontal=1;startSize=26;horizontalStack=0;resizeParent=1;resizeParentMax=0;resizeLast=0;collapsible=1;marginBottom=0;strokeColor=#000000;fontColor=#000000;labelBackgroundColor=none;" parent="1" vertex="1">
                    <mxGeometry x="177.5" y="790" width="195" height="150" as="geometry"/>
                </mxCell>
                <mxCell id="15" value="- url: string" style="text;align=left;verticalAlign=top;spacingLeft=4;spacingRight=4;overflow=hidden;rotatable=0;points=[[0,0.5],[1,0.5]];portConstraint=eastwest;strokeColor=#000000;fontColor=#000000;labelBackgroundColor=none;" parent="14" vertex="1">
                    <mxGeometry y="26" width="195" height="24" as="geometry"/>
                </mxCell>
                <mxCell id="16" value="" style="line;strokeWidth=1;align=left;verticalAlign=middle;spacingTop=-1;spacingLeft=3;spacingRight=3;rotatable=0;labelPosition=right;points=[];portConstraint=eastwest;strokeColor=#000000;fontColor=#000000;labelBackgroundColor=none;" parent="14" vertex="1">
                    <mxGeometry y="50" width="195" height="8" as="geometry"/>
                </mxCell>
                <mxCell id="17" value="+ play(): void                                        &#10; + download(): void                                    &#10; + share(): void                                       &#10; + delete(): void                                      &#10; + reportAbuse(): void" style="text;align=left;verticalAlign=top;spacingLeft=4;spacingRight=4;overflow=hidden;rotatable=0;points=[[0,0.5],[1,0.5]];portConstraint=eastwest;strokeColor=#000000;fontColor=#000000;labelBackgroundColor=none;" parent="14" vertex="1">
                    <mxGeometry y="58" width="195" height="92" as="geometry"/>
                </mxCell>
                <mxCell id="57" value="Share" style="swimlane;fontStyle=1;align=center;verticalAlign=top;childLayout=stackLayout;horizontal=1;startSize=26;horizontalStack=0;resizeParent=1;resizeParentMax=0;resizeLast=0;collapsible=1;marginBottom=0;strokeColor=#000000;fontColor=#000000;labelBackgroundColor=none;" parent="1" vertex="1">
                    <mxGeometry x="1070" y="950" width="280" height="170" as="geometry"/>
                </mxCell>
                <mxCell id="58" value="- sharedBy: User&#10;- post: Post" style="text;align=left;verticalAlign=top;spacingLeft=4;spacingRight=4;overflow=hidden;rotatable=0;points=[[0,0.5],[1,0.5]];portConstraint=eastwest;strokeColor=#000000;fontColor=#000000;labelBackgroundColor=none;" parent="57" vertex="1">
                    <mxGeometry y="26" width="280" height="44" as="geometry"/>
                </mxCell>
                <mxCell id="59" value="" style="line;strokeWidth=1;align=left;verticalAlign=middle;spacingTop=-1;spacingLeft=3;spacingRight=3;rotatable=0;labelPosition=right;points=[];portConstraint=eastwest;strokeColor=#000000;fontColor=#000000;labelBackgroundColor=none;" parent="57" vertex="1">
                    <mxGeometry y="70" width="280" height="8" as="geometry"/>
                </mxCell>
                <mxCell id="60" value="+ sharePost(user: User, post: Post): void             &#10; + getSharedByUser(): User                             &#10; + getSharedPost(): Post                               &#10; + isSharedByUser(user: User): boolean                 &#10; + getShareCount(): int" style="text;align=left;verticalAlign=top;spacingLeft=4;spacingRight=4;overflow=hidden;rotatable=0;points=[[0,0.5],[1,0.5]];portConstraint=eastwest;strokeColor=#000000;fontColor=#000000;labelBackgroundColor=none;" parent="57" vertex="1">
                    <mxGeometry y="78" width="280" height="92" as="geometry"/>
                </mxCell>
                <mxCell id="61" value="Group" style="swimlane;fontStyle=1;align=center;verticalAlign=top;childLayout=stackLayout;horizontal=1;startSize=26;horizontalStack=0;resizeParent=1;resizeParentMax=0;resizeLast=0;collapsible=1;marginBottom=0;strokeColor=#000000;fontColor=#000000;labelBackgroundColor=none;" parent="1" vertex="1">
                    <mxGeometry x="150" y="570" width="300" height="180" as="geometry"/>
                </mxCell>
                <mxCell id="62" value="- groupId: string                                      &#10; - groupName: string                                    &#10; - members: User[]" style="text;align=left;verticalAlign=top;spacingLeft=4;spacingRight=4;overflow=hidden;rotatable=0;points=[[0,0.5],[1,0.5]];portConstraint=eastwest;strokeColor=#000000;fontColor=#000000;labelBackgroundColor=none;" parent="61" vertex="1">
                    <mxGeometry y="26" width="300" height="54" as="geometry"/>
                </mxCell>
                <mxCell id="63" value="" style="line;strokeWidth=1;align=left;verticalAlign=middle;spacingTop=-1;spacingLeft=3;spacingRight=3;rotatable=0;labelPosition=right;points=[];portConstraint=eastwest;strokeColor=#000000;fontColor=#000000;labelBackgroundColor=none;" parent="61" vertex="1">
                    <mxGeometry y="80" width="300" height="8" as="geometry"/>
                </mxCell>
                <mxCell id="64" value="+ addMember(user: User): void                          &#10; + removeMember(user: User): void                       &#10; + postInGroup(user: User, content: string): Post       &#10; + getGroupPosts(): Post[]                              &#10; + inviteToGroup(user: User): void" style="text;align=left;verticalAlign=top;spacingLeft=4;spacingRight=4;overflow=hidden;rotatable=0;points=[[0,0.5],[1,0.5]];portConstraint=eastwest;strokeColor=#000000;fontColor=#000000;labelBackgroundColor=none;" parent="61" vertex="1">
                    <mxGeometry y="88" width="300" height="92" as="geometry"/>
                </mxCell>
                <mxCell id="65" value="Post" style="swimlane;fontStyle=1;align=center;verticalAlign=top;childLayout=stackLayout;horizontal=1;startSize=26;horizontalStack=0;resizeParent=1;resizeParentMax=0;resizeLast=0;collapsible=1;marginBottom=0;strokeColor=#000000;fontColor=#000000;labelBackgroundColor=none;" parent="1" vertex="1">
                    <mxGeometry x="850" y="470" width="290" height="220" as="geometry"/>
                </mxCell>
                <mxCell id="66" value="- postId: string                                       &#10; - content: string                                     &#10; - author: User                                        &#10; - comments: Comment[]" style="text;align=left;verticalAlign=top;spacingLeft=4;spacingRight=4;overflow=hidden;rotatable=0;points=[[0,0.5],[1,0.5]];portConstraint=eastwest;strokeColor=#000000;fontColor=#000000;labelBackgroundColor=none;" parent="65" vertex="1">
                    <mxGeometry y="26" width="290" height="74" as="geometry"/>
                </mxCell>
                <mxCell id="67" value="" style="line;strokeWidth=1;align=left;verticalAlign=middle;spacingTop=-1;spacingLeft=3;spacingRight=3;rotatable=0;labelPosition=right;points=[];portConstraint=eastwest;strokeColor=#000000;fontColor=#000000;labelBackgroundColor=none;" parent="65" vertex="1">
                    <mxGeometry y="100" width="290" height="8" as="geometry"/>
                </mxCell>
                <mxCell id="68" value="+ addComment(comment: Comment): void                   &#10; + attachMedia(media: Media): void                     &#10; + deletePost(): void                                  &#10; + likePost(user: User): void                          &#10; + sharePost(user: User): void" style="text;align=left;verticalAlign=top;spacingLeft=4;spacingRight=4;overflow=hidden;rotatable=0;points=[[0,0.5],[1,0.5]];portConstraint=eastwest;strokeColor=#000000;fontColor=#000000;labelBackgroundColor=none;" parent="65" vertex="1">
                    <mxGeometry y="108" width="290" height="112" as="geometry"/>
                </mxCell>
                <mxCell id="69" value="User" style="swimlane;fontStyle=1;align=center;verticalAlign=top;childLayout=stackLayout;horizontal=1;startSize=26;horizontalStack=0;resizeParent=1;resizeParentMax=0;resizeLast=0;collapsible=1;marginBottom=0;strokeColor=#000000;fontColor=#000000;labelBackgroundColor=none;" parent="1" vertex="1">
                    <mxGeometry x="150" y="300" width="340" height="190" as="geometry"/>
                </mxCell>
                <mxCell id="70" value=" - userId: string                                       &#10; - username: string                                     &#10; - password: string" style="text;align=left;verticalAlign=top;spacingLeft=4;spacingRight=4;overflow=hidden;rotatable=0;points=[[0,0.5],[1,0.5]];portConstraint=eastwest;strokeColor=#000000;fontColor=#000000;labelBackgroundColor=none;" parent="69" vertex="1">
                    <mxGeometry y="26" width="340" height="54" as="geometry"/>
                </mxCell>
                <mxCell id="71" value="" style="line;strokeWidth=1;align=left;verticalAlign=middle;spacingTop=-1;spacingLeft=3;spacingRight=3;rotatable=0;labelPosition=right;points=[];portConstraint=eastwest;strokeColor=#000000;fontColor=#000000;labelBackgroundColor=none;" parent="69" vertex="1">
                    <mxGeometry y="80" width="340" height="8" as="geometry"/>
                </mxCell>
                <mxCell id="72" value="+ User(name: string, username: string, password: string) &#10; + login(): void                                        &#10; + createPost(content: string): Post                   &#10; + createGroup(name: string): Group                    &#10; + reactToPost(post: Post, reactionType: string): void  &#10; + followUser(user: User): void      " style="text;align=left;verticalAlign=top;spacingLeft=4;spacingRight=4;overflow=hidden;rotatable=0;points=[[0,0.5],[1,0.5]];portConstraint=eastwest;strokeColor=#000000;fontColor=#000000;labelBackgroundColor=none;" parent="69" vertex="1">
                    <mxGeometry y="88" width="340" height="102" as="geometry"/>
                </mxCell>
                <mxCell id="73" value="Like&#10;" style="swimlane;fontStyle=1;align=center;verticalAlign=top;childLayout=stackLayout;horizontal=1;startSize=26;horizontalStack=0;resizeParent=1;resizeParentMax=0;resizeLast=0;collapsible=1;marginBottom=0;strokeColor=#000000;fontColor=#000000;labelBackgroundColor=none;" parent="1" vertex="1">
                    <mxGeometry x="1100" y="730" width="240" height="160" as="geometry"/>
                </mxCell>
                <mxCell id="74" value="- likedBy: User[]" style="text;align=left;verticalAlign=top;spacingLeft=4;spacingRight=4;overflow=hidden;rotatable=0;points=[[0,0.5],[1,0.5]];portConstraint=eastwest;strokeColor=#000000;fontColor=#000000;labelBackgroundColor=none;" parent="73" vertex="1">
                    <mxGeometry y="26" width="240" height="24" as="geometry"/>
                </mxCell>
                <mxCell id="102" value="" style="endArrow=openThin;endFill=0;endSize=24;html=1;jumpSize=90;exitX=0.5;exitY=0;exitDx=0;exitDy=0;startArrow=none;startFill=0;dashed=1;dashPattern=8 8;entryX=0.841;entryY=1.059;entryDx=0;entryDy=0;entryPerimeter=0;strokeColor=#000000;fontColor=#000000;labelBackgroundColor=none;" parent="73" source="57" edge="1">
                    <mxGeometry width="160" relative="1" as="geometry">
                        <mxPoint x="544.06" y="537.98" as="sourcePoint"/>
                        <mxPoint x="-90" y="-40.00199999999995" as="targetPoint"/>
                        <Array as="points">
                            <mxPoint x="-50" y="160"/>
                        </Array>
                    </mxGeometry>
                </mxCell>
                <mxCell id="75" value="" style="line;strokeWidth=1;align=left;verticalAlign=middle;spacingTop=-1;spacingLeft=3;spacingRight=3;rotatable=0;labelPosition=right;points=[];portConstraint=eastwest;strokeColor=#000000;fontColor=#000000;labelBackgroundColor=none;" parent="73" vertex="1">
                    <mxGeometry y="50" width="240" height="8" as="geometry"/>
                </mxCell>
                <mxCell id="76" value="+ like(user: User): void                              &#10; + unlike(user: User): void                            &#10; + getLikesCount(): int                                &#10; + getLikedByUsers(): User[]                           &#10; + isLikedByUser(user: User): boolean" style="text;align=left;verticalAlign=top;spacingLeft=4;spacingRight=4;overflow=hidden;rotatable=0;points=[[0,0.5],[1,0.5]];portConstraint=eastwest;strokeColor=#000000;fontColor=#000000;labelBackgroundColor=none;" parent="73" vertex="1">
                    <mxGeometry y="58" width="240" height="102" as="geometry"/>
                </mxCell>
                <mxCell id="77" value="Reaction" style="swimlane;fontStyle=1;align=center;verticalAlign=top;childLayout=stackLayout;horizontal=1;startSize=26;horizontalStack=0;resizeParent=1;resizeParentMax=0;resizeLast=0;collapsible=1;marginBottom=0;strokeColor=#000000;fontColor=#000000;labelBackgroundColor=none;" parent="1" vertex="1">
                    <mxGeometry x="600" y="800" width="250" height="150" as="geometry"/>
                </mxCell>
                <mxCell id="78" value="- type: string" style="text;align=left;verticalAlign=top;spacingLeft=4;spacingRight=4;overflow=hidden;rotatable=0;points=[[0,0.5],[1,0.5]];portConstraint=eastwest;strokeColor=#000000;fontColor=#000000;labelBackgroundColor=none;" parent="77" vertex="1">
                    <mxGeometry y="26" width="250" height="24" as="geometry"/>
                </mxCell>
                <mxCell id="79" value="" style="line;strokeWidth=1;align=left;verticalAlign=middle;spacingTop=-1;spacingLeft=3;spacingRight=3;rotatable=0;labelPosition=right;points=[];portConstraint=eastwest;strokeColor=#000000;fontColor=#000000;labelBackgroundColor=none;" parent="77" vertex="1">
                    <mxGeometry y="50" width="250" height="8" as="geometry"/>
                </mxCell>
                <mxCell id="80" value="+ react(user: User, type: string): void               &#10; + removeReaction(user: User): void                    &#10; + getType(): string                                   &#10; + getReactedByUsers(): User[]                         &#10; + isReactedByUser(user: User): boolean" style="text;align=left;verticalAlign=top;spacingLeft=4;spacingRight=4;overflow=hidden;rotatable=0;points=[[0,0.5],[1,0.5]];portConstraint=eastwest;strokeColor=#000000;fontColor=#000000;labelBackgroundColor=none;" parent="77" vertex="1">
                    <mxGeometry y="58" width="250" height="92" as="geometry"/>
                </mxCell>
                <mxCell id="81" value="Follower" style="swimlane;fontStyle=1;align=center;verticalAlign=top;childLayout=stackLayout;horizontal=1;startSize=26;horizontalStack=0;resizeParent=1;resizeParentMax=0;resizeLast=0;collapsible=1;marginBottom=0;strokeColor=#000000;fontColor=#000000;labelBackgroundColor=none;" parent="1" vertex="1">
                    <mxGeometry x="170" y="1040" width="260" height="160" as="geometry"/>
                </mxCell>
                <mxCell id="82" value="- follower: User[]" style="text;align=left;verticalAlign=top;spacingLeft=4;spacingRight=4;overflow=hidden;rotatable=0;points=[[0,0.5],[1,0.5]];portConstraint=eastwest;strokeColor=#000000;fontColor=#000000;labelBackgroundColor=none;" parent="81" vertex="1">
                    <mxGeometry y="26" width="260" height="24" as="geometry"/>
                </mxCell>
                <mxCell id="83" value="" style="line;strokeWidth=1;align=left;verticalAlign=middle;spacingTop=-1;spacingLeft=3;spacingRight=3;rotatable=0;labelPosition=right;points=[];portConstraint=eastwest;strokeColor=#000000;fontColor=#000000;labelBackgroundColor=none;" parent="81" vertex="1">
                    <mxGeometry y="50" width="260" height="8" as="geometry"/>
                </mxCell>
                <mxCell id="84" value="+ follow(user: User): void                             |&#10; + unfollow(user: User): void                           &#10; + getFollowersCount(): int                             &#10; + getFollowingCount(): int                             &#10; + isFollowing(user: User): boolean" style="text;align=left;verticalAlign=top;spacingLeft=4;spacingRight=4;overflow=hidden;rotatable=0;points=[[0,0.5],[1,0.5]];portConstraint=eastwest;strokeColor=#000000;fontColor=#000000;labelBackgroundColor=none;" parent="81" vertex="1">
                    <mxGeometry y="58" width="260" height="102" as="geometry"/>
                </mxCell>
                <mxCell id="92" value="" style="endArrow=classic;html=1;entryX=-0.004;entryY=0.256;entryDx=0;entryDy=0;entryPerimeter=0;exitX=0.5;exitY=0;exitDx=0;exitDy=0;jumpSize=22;strokeColor=#000000;fontColor=#000000;labelBackgroundColor=none;" parent="1" source="69" target="8" edge="1">
                    <mxGeometry width="50" height="50" relative="1" as="geometry">
                        <mxPoint x="500" y="250" as="sourcePoint"/>
                        <mxPoint x="550" y="200" as="targetPoint"/>
                        <Array as="points">
                            <mxPoint x="320" y="240"/>
                        </Array>
                    </mxGeometry>
                </mxCell>
                <mxCell id="93" value="" style="endArrow=diamondThin;endFill=1;endSize=24;html=1;jumpSize=90;exitX=-0.007;exitY=0.36;exitDx=0;exitDy=0;exitPerimeter=0;startArrow=classic;startFill=1;strokeColor=#000000;fontColor=#000000;labelBackgroundColor=none;" parent="1" source="13" edge="1">
                    <mxGeometry width="160" relative="1" as="geometry">
                        <mxPoint x="660" y="394.29" as="sourcePoint"/>
                        <mxPoint x="490" y="420" as="targetPoint"/>
                    </mxGeometry>
                </mxCell>
                <mxCell id="94" value="" style="endArrow=diamondThin;endFill=0;endSize=24;html=1;jumpSize=90;entryX=0.511;entryY=1.003;entryDx=0;entryDy=0;entryPerimeter=0;exitX=0.5;exitY=0;exitDx=0;exitDy=0;startArrow=classic;startFill=1;strokeColor=#000000;fontColor=#000000;labelBackgroundColor=none;" parent="1" source="61" target="72" edge="1">
                    <mxGeometry width="160" relative="1" as="geometry">
                        <mxPoint x="1081.41" y="404.20999999999987" as="sourcePoint"/>
                        <mxPoint x="489.99999999999983" y="469.9980000000001" as="targetPoint"/>
                    </mxGeometry>
                </mxCell>
                <mxCell id="95" value="" style="endArrow=none;html=1;jumpSize=90;exitX=0;exitY=0.5;exitDx=0;exitDy=0;strokeColor=#000000;fontColor=#000000;labelBackgroundColor=none;" parent="1" source="66" target="72" edge="1">
                    <mxGeometry width="50" height="50" relative="1" as="geometry">
                        <mxPoint x="610" y="620" as="sourcePoint"/>
                        <mxPoint x="660" y="570" as="targetPoint"/>
                    </mxGeometry>
                </mxCell>
                <mxCell id="96" value="" style="endArrow=diamondThin;endFill=1;endSize=24;html=1;jumpSize=90;exitX=1;exitY=0.5;exitDx=0;exitDy=0;startArrow=classic;startFill=1;entryX=-0.021;entryY=0;entryDx=0;entryDy=0;entryPerimeter=0;strokeColor=#000000;fontColor=#000000;labelBackgroundColor=none;" parent="1" source="17" target="68" edge="1">
                    <mxGeometry width="160" relative="1" as="geometry">
                        <mxPoint x="1093.1100000000001" y="372.4000000000001" as="sourcePoint"/>
                        <mxPoint x="500" y="430" as="targetPoint"/>
                    </mxGeometry>
                </mxCell>
                <mxCell id="97" value="" style="endArrow=none;html=1;jumpSize=90;entryX=-0.021;entryY=0.643;entryDx=0;entryDy=0;entryPerimeter=0;strokeColor=#000000;fontColor=#000000;labelBackgroundColor=none;" parent="1" source="77" target="68" edge="1">
                    <mxGeometry width="50" height="50" relative="1" as="geometry">
                        <mxPoint x="860" y="543" as="sourcePoint"/>
                        <mxPoint x="500" y="479.15094339622647" as="targetPoint"/>
                    </mxGeometry>
                </mxCell>
                <mxCell id="98" value="" style="endArrow=none;html=1;jumpSize=90;entryX=0.276;entryY=1.036;entryDx=0;entryDy=0;entryPerimeter=0;exitX=-0.033;exitY=0.216;exitDx=0;exitDy=0;exitPerimeter=0;strokeColor=#000000;fontColor=#000000;labelBackgroundColor=none;" parent="1" source="76" target="68" edge="1">
                    <mxGeometry width="50" height="50" relative="1" as="geometry">
                        <mxPoint x="774.6394854745226" y="810" as="sourcePoint"/>
                        <mxPoint x="853.9099999999999" y="660.0160000000001" as="targetPoint"/>
                    </mxGeometry>
                </mxCell>
                <mxCell id="99" value="" style="endArrow=none;html=1;jumpSize=90;exitX=0;exitY=0.5;exitDx=0;exitDy=0;entryX=0;entryY=0.5;entryDx=0;entryDy=0;strokeColor=#000000;fontColor=#000000;labelBackgroundColor=none;" parent="1" source="84" target="72" edge="1">
                    <mxGeometry width="50" height="50" relative="1" as="geometry">
                        <mxPoint x="372.5" y="563.85" as="sourcePoint"/>
                        <mxPoint x="12.5" y="500.0009433962265" as="targetPoint"/>
                        <Array as="points">
                            <mxPoint x="60" y="560"/>
                        </Array>
                    </mxGeometry>
                </mxCell>
                <mxCell id="100" value="" style="endArrow=none;html=1;jumpSize=90;entryX=0.276;entryY=1.036;entryDx=0;entryDy=0;entryPerimeter=0;exitX=0;exitY=0.022;exitDx=0;exitDy=0;exitPerimeter=0;strokeColor=#000000;fontColor=#000000;labelBackgroundColor=none;" parent="1" source="60" edge="1">
                    <mxGeometry width="50" height="50" relative="1" as="geometry">
                        <mxPoint x="1042.04" y="806.0020000000002" as="sourcePoint"/>
                        <mxPoint x="880" y="690.002" as="targetPoint"/>
                    </mxGeometry>
                </mxCell>
                <mxCell id="101" value="" style="endArrow=openThin;endFill=0;endSize=24;html=1;jumpSize=90;exitX=0;exitY=0.5;exitDx=0;exitDy=0;startArrow=none;startFill=0;dashed=1;dashPattern=8 8;entryX=0.841;entryY=1.059;entryDx=0;entryDy=0;entryPerimeter=0;strokeColor=#000000;fontColor=#000000;labelBackgroundColor=none;" parent="1" source="60" target="72" edge="1">
                    <mxGeometry width="160" relative="1" as="geometry">
                        <mxPoint x="1033.1100000000001" y="450.0000000000001" as="sourcePoint"/>
                        <mxPoint x="450" y="520" as="targetPoint"/>
                        <Array as="points">
                            <mxPoint x="840" y="740"/>
                        </Array>
                    </mxGeometry>
                </mxCell>
                <mxCell id="103" value="" style="endArrow=openThin;endFill=0;endSize=24;html=1;jumpSize=90;exitX=0.25;exitY=0;exitDx=0;exitDy=0;startArrow=none;startFill=0;dashed=1;dashPattern=8 8;entryX=0.841;entryY=1.059;entryDx=0;entryDy=0;entryPerimeter=0;strokeColor=#000000;fontColor=#000000;labelBackgroundColor=none;" parent="1" source="77" edge="1">
                    <mxGeometry width="160" relative="1" as="geometry">
                        <mxPoint x="994.06" y="1067.98" as="sourcePoint"/>
                        <mxPoint x="359.9999999999996" y="489.99800000000005" as="targetPoint"/>
                        <Array as="points">
                            <mxPoint x="550" y="630"/>
                        </Array>
                    </mxGeometry>
                </mxCell>
                <mxCell id="104" value="" style="endArrow=openThin;endFill=0;endSize=24;html=1;jumpSize=90;exitX=0.5;exitY=0;exitDx=0;exitDy=0;startArrow=none;startFill=0;dashed=1;dashPattern=8 8;entryX=1;entryY=0.5;entryDx=0;entryDy=0;strokeColor=#000000;fontColor=#000000;labelBackgroundColor=none;" parent="1" source="73" target="70" edge="1">
                    <mxGeometry width="160" relative="1" as="geometry">
                        <mxPoint x="1292.5" y="729" as="sourcePoint"/>
                        <mxPoint x="989.9999999999995" y="418.99800000000005" as="targetPoint"/>
                        <Array as="points">
                            <mxPoint x="1220" y="450"/>
                        </Array>
                    </mxGeometry>
                </mxCell>
            </root>
        </mxGraphModel>
    </diagram>
</mxfile>